<svg width="58" height="42" viewBox="0 0 58 42" fill="none" xmlns="http://www.w3.org/2000/svg">
<path d="M23.5 31.5V11L41.5 20.5L23.5 31.5Z" fill="white"/>
<path d="M24.1667 29V12.0833L38.6667 20.5707L24.1667 29ZM57.42 8.86192C57.42 8.86192 56.8521 4.83817 55.1145 3.06433C52.9081 0.737083 50.4358 0.727416 49.3024 0.592083C41.1873 -5.40167e-07 29.0121 0 29.0121 0H28.9879C28.9879 0 16.8127 -5.40167e-07 8.69758 0.592083C7.56175 0.727416 5.09192 0.737083 2.88308 3.06433C1.1455 4.83817 0.58 8.86433 0.58 8.86433C0.58 8.86433 0 13.5865 0 18.3111V22.7457C0 27.4727 0.58 32.1997 0.58 32.1997C0.58 32.1997 1.1455 36.2234 2.88308 37.9972C5.09192 40.3245 7.9895 40.2496 9.28 40.4937C13.92 40.9456 29 41.0833 29 41.0833C29 41.0833 41.1873 41.064 49.3024 40.4743C50.4383 40.3366 52.9081 40.3269 55.1145 37.9997C56.8545 36.2258 57.42 32.1997 57.42 32.1997C57.42 32.1997 58 27.4751 58 22.7481V18.3159C58 13.5889 57.42 8.86192 57.42 8.86192Z" fill="#DB3333"/>
</svg>