<svg width="420" height="248" viewBox="0 0 420 248" fill="none"
  xmlns="http://www.w3.org/2000/svg">

  <rect width="420" height="248" fill="#292A29"/>

  <path d="M419.5 0H248C250.745 48.552 269 94.5 319.5 122C370 149.5 419.5 133.5 419.5 133.5V0Z" fill="url(#paint0_linear_424_4848)"/>

  <path d="M0 248H140C137.759 205.82 122.857 165.902 81.6327 142.011C40.4082 118.12 0 132.021 0 132.021V248Z" fill="url(#paint1_linear_424_4848)"/>

  <path d="M204.5 134.5V114L222.5 123.5L204.5 134.5Z" fill="white"/>

  <path d="M205.167 132V115.083L219.667 123.571L205.167 132ZM238.42 111.862C238.42 111.862 237.852 107.838 236.115 106.064C233.908 103.737 231.436 103.727 230.302 103.592C222.187 103 210.012 103 210.012 103H209.988C209.988 103 197.813 103 189.698 103.592C188.562 103.727 186.092 103.737 183.883 106.064C182.145 107.838 181.58 111.864 181.58 111.864C181.58 111.864 181 116.587 181 121.311V125.746C181 130.473 181.58 135.2 181.58 135.2C181.58 135.2 182.145 139.223 183.883 140.997C186.092 143.324 188.989 143.25 190.28 143.494C194.92 143.946 210 144.083 210 144.083C210 144.083 222.187 144.064 230.302 143.474C231.438 143.337 233.908 143.327 236.115 141C237.854 139.226 238.42 135.2 238.42 135.2C238.42 135.2 239 130.475 239 125.748V121.316C239 116.589 238.42 111.862 238.42 111.862Z" fill="#DB3333"/>

  <defs>

    <linearGradient id="paint0_linear_424_4848" x1="277" y1="3.5" x2="420" y2="109" gradientUnits="userSpaceOnUse">

      <stop stop-color="#3D3D3D"/>

      <stop offset="1" stop-color="#2C2C2C"/>

    </linearGradient>

    <linearGradient id="paint1_linear_424_4848" x1="116.327" y1="244.959" x2="-5.43197" y2="160.552" gradientUnits="userSpaceOnUse">

      <stop stop-color="#3D3D3D"/>

      <stop offset="1" stop-color="#2C2C2C"/>

    </linearGradient>

  </defs>

</svg>